<?xml version="1.0" encoding="utf-8"?>
<!-- Generator: Adobe Illustrator 16.0.0, SVG Export Plug-In . SVG Version: 6.00 Build 0)  -->
<!DOCTYPE svg PUBLIC "-//W3C//DTD SVG 1.1//EN" "http://www.w3.org/Graphics/SVG/1.1/DTD/svg11.dtd">
<svg version="1.1" id="图层_1" xmlns="http://www.w3.org/2000/svg" xmlns:xlink="http://www.w3.org/1999/xlink" x="0px" y="0px"
	 width="600px" height="183.767px" viewBox="0 0 600 183.767" enable-background="new 0 0 600 183.767" xml:space="preserve">
<g>
	<text transform="matrix(1 0 0 1 62.6719 152.6719)" opacity="0.1" font-family="'Aideep-'" font-size="139.968">KOZO4</text>
	<g>
		<path fill="#0D0304" d="M80.913,52.791h13.19c0.865,0.137,1.299,0.57,1.299,1.299v95.339c0,0.867-0.434,1.299-1.299,1.299h-13.19
			c-0.866,0-1.298-0.432-1.298-1.299V54.09C79.751,53.225,80.184,52.791,80.913,52.791z M134.836,52.791h18.385v0.684
			c-5.149,6.88-16.312,21.118-33.489,42.715c26.791,34.218,40.596,52.397,41.417,54.538h-17.77
			c-1.959-1.504-15.992-19.91-42.1-55.221v-0.615C123.24,66.825,134.426,52.791,134.836,52.791z"/>
		<path fill="#0D0304" d="M224.435,52.791h0.615c22.371,0,38.044,11.915,47.021,35.744c1.321,5.877,1.982,10.274,1.982,13.19
			c0,21.779-11.481,37.453-34.445,47.02c-4.602,1.322-9.226,1.982-13.874,1.982h-3.964c-17.496,0-31.621-9.932-42.374-29.797
			c-2.506-6.972-3.827-13.373-3.964-19.205c0-20.594,10.593-35.813,31.78-45.654C212.178,53.885,217.919,52.791,224.435,52.791z
			 M191.289,101.726c0,15.537,8.383,26.357,25.15,32.463c4.146,0.547,6.811,0.98,7.996,1.299c15.856,0,26.881-8.816,33.079-26.449
			l0.615-7.928c0-15.218-8.589-25.811-25.766-31.78c-2.324-0.456-4.534-0.684-6.629-0.684h-1.982
			c-15.401,0-25.994,8.839-31.78,26.518L191.289,101.726z"/>
		<path fill="#0D0304" d="M295.444,52.655h62.74l1.299,0.683c-27.384,51.349-41.759,78.573-43.125,81.671h43.809
			c0.863,0.137,1.298,0.592,1.298,1.367v13.053c0,0.867-0.435,1.299-1.298,1.299h-69.985c-0.866,0-1.298-0.432-1.298-1.299
			c1.184-1.412,16.015-28.658,44.492-81.739h-37.932c-0.867,0-1.299-0.433-1.299-1.298V53.953
			C294.282,53.088,294.714,52.655,295.444,52.655z"/>
		<path fill="#0D0304" d="M424.751,52.791h0.615c22.371,0,38.043,11.915,47.021,35.744c1.321,5.877,1.982,10.274,1.982,13.19
			c0,21.779-11.481,37.453-34.445,47.02c-4.604,1.322-9.227,1.982-13.874,1.982h-3.964c-17.496,0-31.62-9.932-42.373-29.797
			c-2.506-6.972-3.827-13.373-3.964-19.205c0-20.594,10.593-35.813,31.779-45.654C412.493,53.885,418.233,52.791,424.751,52.791z
			 M391.604,101.726c0,15.537,8.382,26.357,25.15,32.463c4.145,0.547,6.81,0.98,7.996,1.299c15.856,0,26.882-8.816,33.079-26.449
			l0.615-7.928c0-15.218-8.589-25.811-25.766-31.78c-2.324-0.456-4.536-0.684-6.63-0.684h-1.981
			c-15.403,0-25.996,8.839-31.78,26.518L391.604,101.726z"/>
	</g>
	<g>
		<path d="M454.046,9.701h19.683l1.948,1.025l-11.789,71.043h32.497l2.05,0.923l0.923-1.948V9.701h20.708
			c1.367,0.205,2.051,0.855,2.051,1.948v69.095l0.923,1.948l2.05-0.923h26.552c1.367,0.205,2.051,0.855,2.051,1.948V103.4
			c0,1.368-0.684,2.05-2.051,2.05h-29.524v49.311c0,1.299-0.684,1.947-2.051,1.947h-20.708v-49.31c0-1.297-0.651-1.948-1.947-1.948
			h-58.229l-1.947-1.025C446.46,41.275,452.062,9.701,454.046,9.701z"/>
	</g>
</g>
</svg>
